<?xml version="1.0" standalone="no"?>
<!DOCTYPE svg PUBLIC "-//W3C//DTD SVG 20010904//EN"
 "http://www.w3.org/TR/2001/REC-SVG-20010904/DTD/svg10.dtd">
<svg version="1.0" xmlns="http://www.w3.org/2000/svg"
 width="512.000000pt" height="512.000000pt" viewBox="0 0 512.000000 512.000000"
 preserveAspectRatio="xMidYMid meet">
<metadata>
Created by potrace 1.14, written by Peter Selinger 2001-2017
</metadata>
<g transform="translate(0.000000,512.000000) scale(0.100000,-0.100000)"
fill="#000000" stroke="none">
<path d="M2070 5109 c-106 -9 -224 -23 -295 -35 -22 -3 -53 -8 -70 -9 -16 -2
-31 -4 -32 -5 -2 -2 -6 -3 -10 -4 -21 -5 -89 -19 -98 -21 -5 -1 -12 -3 -15 -4
-3 -2 -14 -4 -25 -6 -34 -5 -138 -35 -178 -50 -20 -8 -39 -15 -42 -15 -26 -2
-160 -56 -240 -97 -79 -41 -88 -47 -122 -70 -17 -13 -34 -23 -37 -23 -18 0
-169 -147 -192 -187 -10 -18 -22 -33 -27 -33 -5 0 -7 -7 -3 -15 3 -8 1 -15 -4
-15 -5 0 -12 -11 -16 -25 -3 -14 -10 -25 -15 -25 -5 0 -8 -4 -6 -9 1 -5 -25
-40 -58 -77 -82 -92 -83 -93 -91 -160 -13 -113 -13 -111 22 -149 26 -26 32
-39 24 -48 -18 -20 -54 -81 -56 -96 -2 -8 -7 -17 -12 -20 -11 -8 -104 -181
-97 -181 3 0 -1 -10 -10 -23 -8 -13 -12 -27 -8 -30 3 -4 2 -7 -4 -7 -6 0 -16
-21 -23 -47 -18 -66 -20 -75 -23 -98 -2 -12 -7 -27 -12 -34 -6 -10 -4 -12 6
-6 11 7 12 6 2 -7 -7 -8 -10 -18 -6 -22 4 -3 8 -20 9 -36 3 -40 37 -94 95
-152 51 -51 60 -77 46 -143 -10 -51 -54 -145 -68 -145 -6 0 -7 -4 -4 -10 3 -5
1 -10 -5 -10 -6 0 -9 -4 -5 -9 3 -5 -1 -15 -8 -23 -7 -7 -28 -35 -47 -63 -18
-27 -36 -52 -40 -55 -3 -3 -24 -27 -45 -55 -22 -27 -54 -63 -70 -80 -17 -18
-44 -49 -60 -70 -17 -21 -36 -44 -42 -51 -7 -7 -13 -17 -13 -22 0 -6 -5 -12
-11 -14 -5 -2 -11 -11 -13 -20 -1 -10 -5 -21 -9 -24 -4 -4 -7 -18 -7 -30 0
-17 11 -29 40 -44 22 -11 40 -17 40 -13 0 4 5 2 12 -5 7 -7 24 -12 38 -12 48
0 150 -44 172 -75 12 -16 1 -83 -16 -100 -9 -9 -16 -21 -16 -26 0 -6 -4 -8 -8
-5 -4 3 -13 -8 -19 -23 -9 -25 -7 -32 18 -57 41 -42 56 -53 83 -64 28 -10 28
-22 -2 -70 -12 -19 -22 -40 -22 -46 0 -19 33 -48 83 -73 26 -14 52 -30 59 -38
11 -13 14 -74 5 -103 -9 -32 -19 -56 -32 -83 -8 -15 -10 -25 -5 -22 11 7 14
-8 3 -19 -17 -17 9 -156 30 -156 4 0 6 -4 3 -9 -7 -11 52 -64 97 -87 29 -16
53 -23 127 -40 14 -4 68 -6 120 -6 87 0 134 3 230 17 19 2 53 7 75 10 22 3 49
7 60 9 11 2 47 7 80 10 33 4 78 10 100 12 40 5 95 -11 95 -27 0 -5 3 -8 8 -7
4 0 27 -8 52 -20 43 -19 64 -20 135 -8 17 3 41 8 55 10 14 3 26 5 28 7 1 1 7
3 12 4 6 1 12 4 15 5 5 3 32 6 61 9 8 0 12 6 9 11 -4 6 -9 8 -13 6 -4 -2 -32
2 -62 10 l-55 14 70 -5 c86 -6 106 -10 170 -32 62 -22 155 -111 155 -148 0
-14 4 -25 8 -25 5 0 10 -32 11 -71 2 -56 -1 -69 -11 -63 -10 6 -11 5 -1 -8 7
-8 10 -17 7 -20 -2 -3 -7 -18 -10 -34 -7 -44 -64 -202 -94 -266 -15 -31 -25
-59 -22 -62 3 -4 0 -6 -6 -6 -7 0 -18 -15 -27 -32 -20 -44 -55 -106 -82 -145
-13 -17 -23 -36 -23 -42 0 -6 -4 -11 -8 -11 -5 0 -23 -21 -40 -47 -17 -27 -50
-70 -74 -98 -103 -118 -128 -145 -128 -139 0 4 -11 -6 -25 -22 -14 -16 -25
-33 -25 -37 0 -5 -4 -6 -9 -3 -5 3 -11 -1 -15 -9 -7 -18 -6 -18 57 0 29 8 63
17 77 19 14 3 54 12 90 21 36 9 73 18 83 21 52 12 256 63 277 68 61 16 105 24
112 20 4 -3 8 -1 8 3 0 5 28 15 63 23 34 7 69 15 77 16 8 2 105 27 215 54 110
28 209 53 220 55 11 2 60 13 109 25 78 18 91 19 111 6 12 -8 39 -17 59 -20 21
-4 42 -9 47 -12 5 -3 9 0 9 5 0 6 3 10 8 10 23 -4 44 4 71 26 20 17 37 24 53
21 13 -3 52 -8 88 -11 104 -10 142 -14 190 -21 48 -6 66 -8 170 -19 36 -4 76
-8 90 -10 14 -1 54 -6 90 -9 36 -4 76 -9 90 -11 14 -2 50 -7 80 -10 93 -9 108
-14 114 -39 6 -23 47 -57 76 -63 85 -17 158 5 184 56 19 36 20 52 4 85 -12 28
-80 66 -116 66 -12 0 -22 4 -22 10 0 5 -12 35 -26 67 -46 102 -54 121 -54 132
0 6 -5 11 -11 11 -5 0 -8 4 -5 9 3 5 -1 21 -9 37 -13 28 -37 84 -40 94 0 3 -6
14 -12 25 -6 11 -11 23 -12 28 0 4 -9 28 -21 53 -11 26 -20 48 -20 50 0 2 -9
23 -20 47 -10 23 -20 49 -22 57 -2 8 -6 18 -11 21 -4 3 -9 14 -12 25 -2 10
-22 62 -45 114 -113 260 -124 292 -105 302 17 10 48 71 49 98 1 18 -52 80 -69
80 -7 0 -10 11 -7 30 2 17 7 30 11 30 4 0 7 8 7 18 1 21 7 44 34 142 25 89 28
102 29 114 1 4 7 6 15 3 20 -8 91 30 105 56 14 27 17 55 8 82 -5 16 4 27 54
60 33 22 68 45 77 50 9 6 19 13 22 16 3 3 25 19 50 34 24 16 50 33 57 39 34
30 43 36 57 36 8 0 16 4 18 8 2 5 39 33 83 63 78 53 82 54 151 54 59 0 76 4
107 25 22 15 39 36 43 53 8 37 -4 87 -22 87 -8 0 -14 7 -14 16 0 22 52 134 63
134 4 0 5 5 1 11 -3 6 -3 14 2 18 8 5 35 56 39 71 0 3 24 51 52 108 29 56 49
102 46 102 -20 0 31 36 54 38 15 1 42 9 60 17 93 44 81 157 -20 187 -43 12
-58 27 -65 63 -2 11 -5 25 -6 30 -2 6 -6 24 -11 40 -4 17 -13 36 -19 44 -9 12
-8 13 2 7 11 -7 12 -4 4 11 -6 11 -13 30 -15 44 -2 13 -7 31 -10 39 -4 12 -38
140 -63 239 -2 9 -10 42 -18 73 -7 31 -17 61 -21 67 -3 6 -2 11 3 11 4 0 23
14 40 31 72 70 18 168 -97 174 -24 2 -55 -1 -67 -5 -17 -7 -31 -3 -61 19 -51
37 -191 134 -211 146 -9 6 -21 15 -27 20 -7 6 -38 28 -71 50 -32 22 -61 42
-64 45 -3 3 -42 30 -86 60 l-82 55 1 47 c2 56 -17 80 -77 103 -45 17 -81 16
-138 -5 -29 -11 -42 -11 -60 -2 -13 6 -48 21 -78 32 -30 11 -64 24 -75 29 -11
5 -55 23 -97 41 -42 18 -85 40 -96 50 -23 21 -170 92 -227 109 -22 7 -47 15
-55 18 -17 7 -24 9 -65 18 -42 9 -60 13 -60 15 0 1 -16 3 -36 5 -20 1 -54 5
-75 9 -38 6 -69 9 -229 25 -95 10 -548 10 -655 0z m1540 -328 c3 -3 30 -15 60
-25 30 -11 75 -29 100 -40 39 -18 45 -25 46 -55 1 -21 11 -43 27 -58 l24 -25
-70 -106 c-39 -59 -76 -110 -81 -114 -7 -5 -7 -8 -1 -8 7 0 7 -3 0 -8 -15 -10
-115 -161 -115 -172 0 -6 -4 -10 -9 -10 -5 0 -14 -13 -21 -30 -7 -16 -15 -30
-19 -30 -3 0 -19 -23 -36 -50 l-29 -50 -46 6 c-53 7 -60 11 -60 30 0 8 -5 14
-10 14 -6 0 -9 3 -8 8 4 9 -94 206 -104 210 -4 2 -8 9 -8 16 0 7 -34 80 -75
164 -41 84 -75 156 -75 162 0 5 12 11 28 11 32 2 55 5 97 13 17 3 46 8 65 11
19 4 40 8 45 9 45 8 142 55 172 82 20 19 34 34 30 34 -4 0 -2 6 5 14 12 14 56
12 68 -3z m-1665 -116 c94 -8 140 -13 140 -15 0 -1 18 -3 40 -5 22 -2 65 -6
95 -9 118 -12 149 -15 270 -23 69 -4 218 -7 333 -7 114 1 205 -1 203 -4 -6 -5
34 -85 47 -93 5 -3 8 -10 8 -15 -1 -16 10 -44 18 -44 5 0 11 -13 14 -29 3 -16
13 -36 22 -44 8 -9 15 -20 15 -26 0 -13 22 -54 33 -62 5 -3 8 -9 7 -13 -3 -11
52 -120 64 -128 6 -4 8 -8 4 -8 -4 0 9 -30 28 -67 19 -37 34 -72 34 -78 0 -5
-12 -21 -25 -34 -22 -20 -30 -39 -26 -63 0 -3 -13 -11 -29 -17 -17 -5 -30 -7
-30 -4 0 3 -7 0 -15 -7 -8 -7 -15 -10 -15 -6 0 3 -15 0 -34 -8 -19 -8 -37 -12
-40 -9 -2 3 -11 1 -18 -3 -7 -5 -17 -9 -23 -10 -48 -9 -66 -13 -73 -18 -5 -3
-20 -7 -33 -9 -14 -3 -74 -19 -134 -36 -61 -17 -120 -33 -133 -36 -12 -2 -26
-6 -30 -9 -5 -3 -19 -7 -33 -10 -13 -2 -78 -19 -144 -36 -200 -54 -188 -52
-247 -29 -29 12 -57 22 -63 23 -5 1 -19 7 -30 13 -11 6 -23 11 -28 12 -7 1
-40 14 -122 49 -123 52 -386 190 -405 212 -3 3 -21 15 -42 27 -81 47 -250 216
-269 268 -7 19 -17 35 -21 35 -4 0 -7 3 -7 8 1 4 0 9 -1 12 -6 14 -6 140 1
140 4 0 9 10 13 23 21 84 220 181 393 192 30 2 56 5 58 7 5 4 146 1 230 -7z
m2178 -142 c45 -31 96 -66 112 -77 17 -12 32 -24 33 -28 2 -5 10 -8 17 -8 7 0
15 -3 17 -7 2 -5 32 -28 68 -53 36 -24 67 -48 68 -52 2 -4 10 -8 17 -8 7 0 15
-3 17 -7 2 -5 36 -30 76 -57 39 -26 72 -53 72 -60 -1 -22 -25 -51 -44 -53 -48
-4 -115 -13 -128 -18 -7 -2 -31 -7 -53 -9 -22 -3 -51 -7 -65 -10 -14 -3 -38
-7 -55 -9 -16 -3 -84 -15 -150 -26 -66 -12 -136 -24 -155 -27 -19 -3 -46 -7
-60 -10 -14 -2 -38 -7 -55 -9 -16 -3 -40 -7 -52 -9 -11 -3 -43 -8 -70 -12 -26
-3 -57 -8 -68 -11 -11 -2 -38 -6 -60 -9 -22 -3 -46 -7 -52 -9 -7 -3 -13 3 -13
11 0 16 38 76 52 82 5 2 6 8 2 13 -3 5 0 9 7 9 7 0 10 3 7 6 -4 3 1 14 10 24
29 32 42 50 40 52 -3 4 84 132 96 140 7 5 7 8 1 8 -6 0 -6 3 0 8 6 4 24 28 40
54 17 27 34 48 38 48 5 0 6 4 3 8 -3 5 6 21 20 37 13 15 24 32 24 36 0 4 11
19 25 33 14 14 24 29 23 33 -2 5 18 10 44 13 26 3 50 9 54 13 11 10 9 11 97
-50z m522 -477 c17 -14 48 -28 68 -31 20 -4 37 -12 38 -19 0 -6 2 -18 5 -26 2
-8 11 -46 21 -85 9 -38 20 -72 24 -75 3 -3 6 -12 7 -20 0 -13 6 -41 16 -85 2
-5 8 -30 15 -55 8 -25 15 -52 16 -60 2 -8 4 -15 5 -15 2 0 6 -16 13 -55 3 -14
6 -25 7 -25 2 0 4 -9 24 -86 14 -56 13 -57 -10 -67 -12 -6 -30 -22 -39 -36
-14 -21 -23 -24 -66 -22 -27 1 -49 -1 -49 -4 0 -3 -11 -5 -25 -5 -14 0 -25 2
-25 5 0 3 -11 5 -25 5 -14 0 -25 -4 -25 -8 0 -5 -5 -5 -12 -1 -15 9 -128 11
-128 3 0 -4 -15 -3 -34 1 -22 5 -39 3 -45 -3 -6 -6 -11 -7 -11 -1 0 10 -132
10 -149 0 -6 -4 -11 -4 -11 1 0 4 -31 8 -70 8 -38 0 -70 -4 -70 -8 0 -5 -6 -5
-12 0 -7 4 -23 7 -34 8 -12 0 -30 7 -40 17 -23 19 -79 35 -116 32 -23 -2 -37
12 -114 114 -113 149 -106 140 -126 163 -10 10 -18 23 -18 28 0 5 -3 11 -7 13
-5 2 -28 30 -52 63 -25 33 -48 62 -53 63 -4 2 -8 10 -8 18 0 8 -4 14 -10 14
-15 0 -12 15 9 39 11 13 21 27 23 31 2 7 156 38 273 55 17 3 41 7 55 10 14 3
43 8 65 10 22 3 51 7 65 10 32 7 54 11 110 20 25 4 54 9 65 11 10 2 35 6 55 9
20 3 45 7 55 9 11 2 40 7 65 11 25 4 54 9 65 11 11 3 38 7 60 10 22 3 56 10
75 14 52 12 51 12 85 -14z m-1329 -227 c19 -11 58 -23 86 -26 57 -6 57 -6 126
-101 23 -32 53 -72 67 -88 14 -16 25 -32 25 -35 0 -3 18 -25 40 -50 22 -24 40
-49 40 -55 0 -7 7 -14 15 -18 8 -3 15 -12 15 -20 0 -8 4 -16 8 -18 4 -1 25
-25 45 -52 l37 -49 -20 -32 c-24 -38 -25 -51 -5 -88 l14 -27 -137 -134 c-75
-74 -183 -179 -238 -233 l-101 -99 -62 0 c-33 0 -66 -5 -72 -11 -14 -14 -26
-10 -117 44 -40 24 -77 43 -82 43 -6 0 -10 5 -10 12 0 6 -2 9 -5 6 -3 -3 -41
15 -85 41 -131 77 -145 85 -150 85 -3 1 -23 12 -45 25 -22 14 -56 33 -75 44
-19 11 -36 21 -38 22 -2 2 13 21 33 42 38 40 140 172 140 182 1 3 6 15 12 27
31 54 12 137 -42 187 -32 31 -181 107 -208 107 -9 0 -19 5 -22 10 -3 6 -14 10
-24 10 -10 0 -33 6 -51 13 -31 14 -30 14 117 56 81 23 157 44 168 46 11 3 34
8 50 12 17 4 33 6 38 5 4 -1 7 2 7 6 0 5 6 9 13 9 13 0 233 58 367 97 47 13
87 24 89 25 2 1 19 -8 37 -20z m1545 -620 c16 -17 29 -36 29 -43 0 -6 -29 -71
-65 -144 -36 -72 -65 -136 -65 -142 0 -5 -4 -10 -10 -10 -6 0 -9 -3 -8 -7 3
-12 -61 -141 -74 -149 -6 -4 -27 -8 -46 -10 -37 -3 -92 -25 -92 -36 0 -3 -7
-14 -16 -23 -19 -18 -21 -69 -5 -89 8 -10 8 -16 -2 -25 -8 -6 -17 -8 -20 -4
-4 3 -7 1 -7 -6 0 -6 -11 -16 -25 -21 -14 -5 -25 -14 -25 -20 0 -6 -4 -8 -10
-5 -5 3 -10 2 -10 -4 0 -5 -11 -16 -25 -23 -32 -16 -247 -162 -297 -201 -21
-16 -38 -26 -38 -22 0 3 -9 -3 -21 -13 -19 -18 -24 -19 -65 -6 -24 7 -44 9
-44 4 0 -4 -9 -6 -19 -3 -10 3 -28 0 -39 -6 -15 -8 -23 -7 -32 4 -7 8 -18 15
-25 15 -8 0 -15 3 -17 8 -3 8 -39 34 -135 98 -34 23 -59 45 -56 48 4 3 -1 6
-9 6 -9 0 -39 18 -67 40 -28 22 -53 40 -56 40 -2 0 -25 15 -50 34 -37 29 -42
36 -30 46 8 7 15 19 15 26 0 8 6 14 13 15 9 0 9 2 0 5 -7 3 -9 12 -7 19 3 8
-1 24 -10 37 -16 22 -13 25 107 143 68 66 151 146 185 178 33 31 58 57 55 57
-2 0 10 12 29 27 18 15 46 41 62 58 16 16 33 29 38 27 22 -6 98 -7 98 -1 0 4
14 10 30 14 17 4 28 11 24 16 -3 5 0 9 6 9 6 0 18 16 26 35 l14 35 381 0 381
0 29 -31z m-2271 -264 c21 -14 45 -26 52 -27 7 -2 15 -5 18 -8 9 -10 263 -150
272 -150 4 0 8 -4 8 -10 0 -5 5 -10 10 -10 6 0 48 -21 95 -47 83 -47 85 -49
83 -83 -1 -19 4 -46 11 -59 8 -15 9 -26 3 -30 -12 -7 -144 -127 -211 -190
-109 -103 -194 -176 -202 -173 -5 1 -31 4 -57 6 -81 6 -149 -34 -158 -95 -6
-36 -9 -38 -90 -69 -46 -18 -85 -32 -88 -32 -3 1 -30 -10 -61 -23 -30 -14 -55
-22 -55 -18 0 3 -9 -2 -20 -12 -11 -10 -20 -15 -20 -12 0 3 -15 0 -34 -8 l-35
-15 -12 38 c-6 20 -16 42 -21 49 -5 7 -7 17 -3 23 3 5 2 10 -3 10 -13 0 -25
78 -25 160 0 73 20 197 34 206 5 3 7 10 4 15 -4 5 -1 9 6 9 7 0 10 3 6 6 -13
13 97 194 179 293 57 70 257 279 267 280 4 1 25 -10 47 -24z m675 -456 c6 0
19 1 30 2 18 2 155 -85 163 -103 2 -4 10 -8 17 -8 7 0 15 -3 17 -7 3 -8 39
-34 158 -114 36 -24 67 -46 70 -49 3 -3 22 -18 43 -33 30 -23 36 -32 26 -43
-15 -19 -3 -81 19 -93 9 -6 13 -11 7 -11 -5 0 1 -6 15 -13 15 -8 24 -21 23
-33 -3 -32 -25 -119 -32 -124 -3 -3 -7 -12 -7 -20 -3 -29 -15 -83 -20 -92 -3
-5 -8 -21 -10 -35 -6 -33 -9 -36 -35 -40 -11 -2 -33 -10 -49 -18 -18 -9 -31
-11 -35 -5 -3 6 -15 10 -26 10 -10 0 -19 5 -19 10 0 6 -7 10 -15 10 -8 0 -23
4 -33 9 -24 14 -193 91 -198 91 -2 0 -28 11 -58 25 -68 31 -99 43 -107 41 -4
0 -17 8 -29 19 -12 11 -25 19 -29 18 -3 -1 -31 10 -61 24 -51 24 -99 43 -110
45 -3 1 -30 14 -60 29 -30 15 -72 34 -92 42 -21 9 -38 19 -38 22 0 3 6 3 13
-1 9 -6 9 -4 1 7 -26 33 -23 59 8 87 17 15 52 47 78 72 26 25 78 72 114 105
37 33 96 88 132 122 54 50 71 60 92 57 15 -3 32 -5 37 -5z m-645 -825 c-1
-156 -3 -284 -6 -284 -5 0 -115 79 -124 89 -3 3 -27 24 -55 46 -64 50 -182
168 -220 220 -17 22 -38 49 -47 59 -27 30 -22 40 30 59 26 9 114 43 196 75
l149 58 39 -19 38 -19 0 -284z m190 307 c3 -4 46 -24 95 -45 50 -21 106 -46
125 -54 19 -9 38 -15 43 -14 4 1 7 -2 7 -7 0 -8 34 -21 54 -20 5 1 12 -3 15
-8 6 -9 73 -43 84 -43 3 0 44 -18 91 -40 47 -22 88 -40 90 -40 7 0 175 -78
205 -94 17 -10 25 -23 26 -49 2 -19 6 -40 9 -46 4 -5 0 -13 -7 -18 -8 -4 -40
-30 -72 -58 -32 -27 -67 -58 -79 -67 -11 -10 -28 -23 -36 -31 -8 -7 -40 -33
-70 -57 -30 -25 -60 -49 -66 -55 -6 -5 -30 -26 -54 -45 -24 -19 -66 -54 -94
-77 -27 -24 -52 -43 -55 -43 -3 0 -22 10 -41 22 -19 12 -91 56 -160 98 -69 42
-149 92 -178 111 l-52 34 1 65 c1 36 0 70 -1 75 -6 27 -4 51 4 56 5 4 5 13 0
20 -10 17 -12 59 -3 59 4 0 4 12 0 28 -5 15 -4 37 0 50 5 12 5 22 1 22 -8 0
-7 83 2 105 3 8 2 15 -2 15 -4 0 -6 19 -5 42 1 24 2 53 2 65 2 38 97 73 121
44z m985 -530 c5 -9 10 -18 10 -21 0 -3 7 -16 14 -28 7 -13 10 -26 7 -29 -3
-3 1 -11 8 -19 8 -7 20 -33 27 -58 7 -26 17 -46 21 -46 4 0 8 -7 8 -15 0 -8 4
-23 9 -33 14 -26 45 -96 47 -107 5 -21 29 -80 35 -85 3 -3 12 -23 20 -45 7
-22 17 -44 21 -49 4 -6 8 -18 8 -28 0 -10 5 -18 10 -18 6 0 10 -7 10 -15 0 -8
9 -34 19 -57 58 -129 71 -159 71 -164 0 -6 17 -47 48 -114 16 -36 22 -56 24
-77 1 -7 5 -13 10 -13 4 0 8 -8 7 -17 0 -19 -54 -67 -73 -65 -6 0 -31 3 -56 5
-107 12 -157 18 -185 23 -16 2 -52 6 -80 8 -57 5 -307 34 -345 40 -14 3 -47 7
-75 10 -163 17 -180 21 -170 36 3 5 -9 22 -25 39 -30 29 -83 51 -127 51 -14 0
-28 13 -42 36 -12 20 -20 38 -18 40 2 2 25 6 53 9 27 3 67 8 89 11 22 3 54 8
70 10 138 17 226 62 230 117 3 31 -89 118 -202 191 l-91 59 36 31 c19 17 48
44 64 60 15 16 28 26 28 22 0 -3 8 2 18 12 27 25 66 57 74 60 4 2 20 15 35 30
26 25 43 39 140 118 21 18 60 50 87 72 42 35 53 40 85 35 20 -3 40 -13 46 -22z
m-815 -866 l31 -45 -26 -35 c-15 -19 -24 -38 -22 -43 16 -24 -7 -33 -223 -88
-51 -13 -106 -26 -115 -28 -5 -1 -19 -5 -30 -9 -11 -3 -31 -9 -45 -11 -14 -3
-79 -19 -145 -36 -66 -17 -131 -34 -145 -37 -32 -6 -54 -11 -57 -12 -2 -1 -4
-1 -5 0 -2 0 -16 -5 -33 -11 -16 -7 -41 -13 -55 -15 -14 -2 -97 -23 -185 -45
-209 -55 -207 -54 -170 -27 16 12 37 27 46 32 10 6 69 40 131 76 162 94 435
222 476 222 6 0 12 4 12 9 0 5 5 6 10 3 6 -3 10 -1 10 6 0 7 3 10 6 6 3 -3 25
1 47 9 75 27 278 84 313 88 18 3 38 7 44 11 5 3 26 8 46 9 19 2 38 7 41 10 10
9 10 9 43 -39z"/>
</g>
</svg>
